# xmcd CD database file
#
# Track frame offsets:
#	150
#	11305
#	21542
#	38595
#	52877
#	67617
#	80825
#	91877
#	105145
#	124130
#	137032
#	144267
#	174847
#	193130
#	210542
#	229295
#
# Disc length: 3300 seconds
#
# Revision: 0
# Processed by: cddbd v1.5.1PL2 Copyright (c) Steve Scherf et al.
# Submitted via: CDex 1.70beta2
#
DISCID=c60ce210
DTITLE=Teddy Charles - New Directions
DYEAR=1951
DGENRE=Jazz
TTITLE0=O'Brien's a Fly'n
TTITLE1=This Is New
TTITLE2=Ol' Man River
TTITLE3=Tenderly
TTITLE4=Basin Street Blues
TTITLE5=I'll Remember April
TTITLE6=The Lady is a Tramp
TTITLE7=Blue Moon
TTITLE8=Edging Out
TTITLE9=Nocturne
TTITLE10=Composition for Four Pieces
TTITLE11=A Night in Tunisia
TTITLE12=Mobiles
TTITLE13=Antiphony
TTITLE14=Metalizing
TTITLE15=Decibels
EXTD=YEAR: 1951
EXTT0=
EXTT1=
EXTT2=
EXTT3=
EXTT4=
EXTT5=
EXTT6=
EXTT7=
EXTT8=
EXTT9=
EXTT10=
EXTT11=
EXTT12=
EXTT13=
EXTT14=
EXTT15=
PLAYORDER=
